<svg width="1792.0000000000002" height="1792.0000000000002" xmlns="http://www.w3.org/2000/svg">

 <g>
  <title>background</title>
  <rect fill="none" id="canvas_background" height="402" width="582" y="-1" x="-1"/>
 </g>
 <g>
  <title>Layer 1</title>
  <path id="svg_1" d="m63,1536l-63,0l0,-1408l63,0l0,1408zm63,-1l-32,0l0,-1407l32,0l0,1407zm94,0l-31,0l0,-1407l31,0l0,1407zm157,0l-31,0l0,-1407l31,0l0,1407zm157,0l-62,0l0,-1407l62,0l0,1407zm126,0l-31,0l0,-1407l31,0l0,1407zm63,0l-31,0l0,-1407l31,0l0,1407zm63,0l-31,0l0,-1407l31,0l0,1407zm157,0l-63,0l0,-1407l63,0l0,1407zm157,0l-63,0l0,-1407l63,0l0,1407zm126,0l-63,0l0,-1407l63,0l0,1407zm126,0l-63,0l0,-1407l63,0l0,1407zm94,0l-63,0l0,-1407l63,0l0,1407zm189,0l-94,0l0,-1407l94,0l0,1407zm63,0l-32,0l0,-1407l32,0l0,1407zm94,1l-63,0l0,-1408l63,0l0,1408z"/>
 </g>
</svg>